<svg width="300" height="300" viewBox="0 0 300 300" fill="none" xmlns="http://www.w3.org/2000/svg">
<path d="M150 0C67.1575 0 0 67.1575 0 150C0 232.843 67.1575 300 150 300C232.843 300 300 232.843 300 150C300 67.1575 232.843 0 150 0ZM241.924 241.924C219.13 264.649 188.692 278.075 156.541 279.584C124.39 281.093 92.828 270.578 68.0058 250.088C43.1836 229.598 26.8791 200.6 22.2693 168.745C17.6594 136.89 25.0744 104.46 43.0695 77.7736C61.0645 51.0871 88.3505 32.0562 119.611 24.3889C150.871 16.7216 183.866 20.9674 212.167 36.2987C240.468 51.6301 262.047 76.9489 272.7 107.322C283.353 137.694 282.316 170.945 269.792 200.596C263.265 216.045 253.8 230.081 241.924 241.924Z" fill="#C4C4C4"/>
<path d="M153.25 75.625L262.044 194.688H44.4556L153.25 75.625Z" fill="#C4C4C4"/>
</svg>
